 
http://img834.imageshack.us/img834/5540/supermanbatmanpublicened.jpg



Superman/Batman: Public Enemies is a 2009 original direct-to-video animated film adaptation of "Public Enemies" -- the opening story arc of DC Comics' Superman/Batman -- which focuses on Superman  and Batman  teaming up to prevent a meteoroid  from striking Earth and take down Lex Luthor, who has been elected President of the United States. The film is the sixth in the line of the DC Universe Animated Original Movies line released by Warner Premiere and Warner Bros. Animation. Voice actors from the DCAU reprised their roles, although it is not a DCAU production and is said not to be connected with that universe beyond sharing of voice actors.

 
http://img80.imageshack.us/i/supermanbatmanpublicene.png/ 
http://img64.imageshack.us/i/supermanbatmanpublicene.png/ 
http://img141.imageshack.us/i/supermanbatmanpublicene.png/ 
http://img214.imageshack.us/i/supermanbatmanpublicene.png/ 
http://img404.imageshack.us/i/supermanbatmanpublicene.png/


Complete name                    : Superman Batman Public Enemies 720p.mkv
Format                           : Matroska
File size                        : 2.13 GiB
Duration                         : 1h 7mn
Overall bit rate                 : 4 541 Kbps
Encoded date                     : UTC 2009-09-28 17:05:48
Writing application              : mkvmerge v2.9.7 ('Tenderness') built on Jul  1 2009 18:43:35
Writing library                  : libebml v0.7.7 + libmatroska v0.8.1

Video
ID                               : 1
Format                           : AVC
Format/Info                      : Advanced Video Codec
Format profile                   : Main@L3.1
Format settings, CABAC           : Yes
Format settings, ReFrames        : 1 frame
Codec ID                         : V_MPEG4/ISO/AVC
Duration                         : 1h 7mn
Bit rate                         : 3 899 Kbps
Width                            : 1 280 pixels
Height                           : 720 pixels
Display aspect ratio             : 16:9
Frame rate                       : 23.976 fps
Color space                      : YUV
Chroma subsampling               : 4:2:0
Bit depth                        : 8 bits
Scan type                        : Progressive
Bits/(Pixel*Frame)               : 0.176
Stream size                      : 1.78 GiB (84%)


Audio
ID                               : 2
Format                           : AC-3
Format/Info                      : Audio Coding 3
Mode extension                   : CM (complete main)
Codec ID                         : A_AC3
Duration                         : 1h 7mn
Bit rate mode                    : Constant
Bit rate                         : 640 Kbps
Channel(s)                       : 6 channels
Channel positions                : Front: L C R, Side: L R, LFE
Sampling rate                    : 48.0 KHz
Bit depth                        : 16 bits
Stream size                      : 307 MiB (14%)
Title                            : Superman Batman Public Enemies 2009 Ac3
Language                         : English

Text #1
ID                               : 3
Format                           : UTF-8
Codec ID                         : S_TEXT/UTF8
Codec ID/Info                    : UTF-8 Plain Text
Language                         : Italian




